<svg width="2557" height="493" viewBox="0 0 2557 493" fill="none" xmlns="http://www.w3.org/2000/svg">
<path d="M110 123.5L78 155.5V393.5L110 427H537L569 393.5M2187.5 393L2222 426H2417.5L2554 291.5V162.5" stroke="#A7E8F5" stroke-width="5" stroke-linecap="round"/>
<path d="M2526.5 161.5V273.5L2406 392.5H804.5L750.5 448.5H633.5L608 472.5H482.5L464.5 490H361.5L349 477H84L29 422.5V293L14.5 278V150L6 139.5V12M18.5 89.5L45 119V415L87.5 457.5H509" stroke="#4E7B7A" stroke-width="5" stroke-linecap="round"/>
<path d="M2526.5 163V126.5" stroke="#4E7B7A" stroke-width="5"/>
<circle cx="6" cy="6" r="3.5" stroke="#4E7B7A" stroke-width="5"/>
<circle cx="514" cy="457.5" r="3.5" stroke="#4E7B7A" stroke-width="5"/>
<circle cx="15.5" cy="85" r="3.5" stroke="#4E7B7A" stroke-width="5"/>
</svg>
