<svg width="2552" height="488" viewBox="0 0 2552 488" fill="none" xmlns="http://www.w3.org/2000/svg">
<path d="M28.5 342.5V225L150.5 102H1757.5M1982.5 102H1757.5M1757.5 102L1816.5 45.5H1935L1962.5 18.5H2085L2102 2.5H2204.5M2549.5 485.5V357L2538 346.5V219L2525 203.5V68L2476 17H2134M2049.5 35H2463L2511 81V380L2534 403V409.5" stroke="#4E7B7A" stroke-width="5" stroke-linecap="round"/>
<path d="M2.5 338V209.5L143 67.5H333.5L367 101.5M1982.5 101L2017 67.5H2445.5L2477 97.5V337.5L2445.5 367" stroke="#A7E8F5" stroke-width="5" stroke-linecap="round"/>
</svg>
